# xmcd
#
# Track frame offsets:
#	150
#	9267
#	14510
#	24363
#	34814
#	47106
#	52775
#	63337
#	75669
#	85812
#	99173
#
# Disc length: 1464 seconds
#
# Revision: 1
# Processed by: cddbd v1.5.1PL0 Copyright (c) Steve Scherf et al.
# Submitted via: EasyCDDAExtractor 7.0.6.1
#
DISCID=7105b60b
DTITLE=Frog Eyes - Ego Scriptor
DYEAR=2004
DGENRE=Power Ballad
TTITLE0=a latex ice age
TTITLE1=ship destroyer
TTITLE2=silence but for the...
TTITLE3=masticated outboard motors
TTITLE4=bells in the crooked port
TTITLE5=i like dot dot dot
TTITLE6=the akhian press
TTITLE7=our lordship has devised a new billing system
TTITLE8=one in six children will flee in boats
TTITLE9=sound travels from snow to the dark
TTITLE10=the fox speaks...
EXTD=
EXTT0=
EXTT1=
EXTT2=
EXTT3=
EXTT4=
EXTT5=
EXTT6=
EXTT7=
EXTT8=
EXTT9=
EXTT10=
PLAYORDER=
